<svg xmlns="http://www.w3.org/2000/svg" width="90" height="90" viewBox="0 0 90 90">
  <g id="doc_profile_green" transform="translate(-301 -178)">
    <g id="Rectangle_27" data-name="Rectangle 27" transform="translate(301 178)" fill="#81c6d4" stroke="#81c6d4" stroke-linejoin="round" stroke-width="3">
      <rect width="90" height="90" rx="10" stroke="none"/>
      <rect x="1.5" y="1.5" width="87" height="87" rx="8.5" fill="none"/>
    </g>
    <path id="Union_18" data-name="Union 18" d="M75.683,73.253A41.008,41.008,0,0,1,64.4,68.488a25.077,25.077,0,0,1-7.609-7.068,15.749,15.749,0,0,1-2.684-6.915A10.647,10.647,0,0,1,54,53c0-.037,0-.073,0-.11s0-.082,0-.123a8.96,8.96,0,0,1,2.63-6.386,15.18,15.18,0,0,1,1.382-1.474,22.637,22.637,0,0,1,5.9-3.888,34.24,34.24,0,0,1,8.017-2.564,38.973,38.973,0,0,1,4.04-.569L75.858,38,90,52.142,104.143,38l-.077-.077c1.122.089,2.255.231,3.369.42a33.92,33.92,0,0,1,7.981,2.351,22.885,22.885,0,0,1,5.971,3.722,12.289,12.289,0,0,1,3.393,4.59,7.741,7.741,0,0,1,.565,2.884,7.2,7.2,0,0,1-.316,2.073l-.022,0c-.033.247-.08.5-.139.75a15.81,15.81,0,0,1-2.657,6.711,25.063,25.063,0,0,1-7.608,7.068,41.014,41.014,0,0,1-11.283,4.765,55.525,55.525,0,0,1-27.636,0ZM107.636,62h2.727a1,1,0,0,0,1-1V57.864H114.5a1,1,0,0,0,1-1V54.137a1,1,0,0,0-1-1h-3.136V50a1,1,0,0,0-1-1h-2.727a1,1,0,0,0-1,1v3.137H103.5a1,1,0,0,0-1,1v2.727a1,1,0,0,0,1,1h3.137V61A1,1,0,0,0,107.636,62ZM76,23c0-8.285,6.043-15,13.5-15S103,14.716,103,23,96.956,38,89.5,38,76,31.284,76,23Z" transform="translate(256 182)" fill="#03b6bd"/>
  </g>
</svg>
