<svg xmlns="http://www.w3.org/2000/svg" width="159.84" height="160.223" viewBox="0 0 159.84 160.223">
  <path id="Union_7" data-name="Union 7" d="M47,156.6a12.662,12.662,0,0,1-3.527-8.759A77.941,77.941,0,0,1,77.871,0C80,0,82.159.09,84.291.267a77.939,77.939,0,0,1,27.956,149.677,77.361,77.361,0,0,1-29.294,6.117v.006H75.68V127.553a56.266,56.266,0,0,1-17-3.9,54.37,54.37,0,0,1-17.251-11.022A51.225,51.225,0,0,1,29.8,96.283a48.813,48.813,0,0,1-4.24-18.455c-.073-.882-.127-1.754-.161-2.588a50.565,50.565,0,0,1,1.964-16.41A37.932,37.932,0,0,1,34.248,45.5a28.331,28.331,0,0,1,11.275-8.461,26.416,26.416,0,0,1,10.058-1.974,28.854,28.854,0,0,1,3.646.239A33.64,33.64,0,0,1,72.739,40.31a42.592,42.592,0,0,1,5.69,4.267A43.677,43.677,0,0,1,83.483,39.9a34.084,34.084,0,0,1,12.945-6.484,27.654,27.654,0,0,1,6.587-.81,26.4,26.4,0,0,1,7.212,1.011,27.88,27.88,0,0,1,12.047,7.161,37.352,37.352,0,0,1,8.161,12.5A50.185,50.185,0,0,1,134,69.38c.112,1.874.131,3.79.055,5.7.01.307.015.694.015,1.184A48.755,48.755,0,0,1,129.8,96.283a51.209,51.209,0,0,1-11.629,16.351,54.37,54.37,0,0,1-17.251,11.022,56.2,56.2,0,0,1-15.689,3.789v17.871h5.232l2.905-.565v-.037A67.67,67.67,0,0,0,149.45,78.151,67.955,67.955,0,0,0,92.093,11.386l-.031.148a24.652,24.652,0,0,0-3.41-.792,24.116,24.116,0,0,0-3.793-.3,22.122,22.122,0,0,0-2.848.182h-.1v-.1c-1.307-.082-2.675-.123-4.062-.123A67.693,67.693,0,0,0,11.887,63.9c-6.28,29.537,8.757,60.824,35.752,74.4a11.59,11.59,0,0,1,16.229.646,12.852,12.852,0,0,1,0,17.631A11.6,11.6,0,0,1,47,156.6Zm1.669-8.843a6.234,6.234,0,1,0,6.233-6.233A6.241,6.241,0,0,0,48.665,147.756ZM47.583,42.741c-6.224,2.541-11.24,7.984-14.123,15.33A43.866,43.866,0,0,0,30.355,75.13a48.258,48.258,0,0,0,1.79,13.4c1.227,5.9,5.835,12.763,12.33,18.356,1.049.9,2.133,1.756,3.223,2.544a39.857,39.857,0,0,0,4.789,3.584,35.73,35.73,0,0,0,9.432,4.335,47.169,47.169,0,0,0,46.2-6.025L114,107.113l-.049-.078a36.836,36.836,0,0,0,9.88-12.546,42.531,42.531,0,0,0,2.525-6.211l.046.015,1.763-6.129-.092-.03a36.765,36.765,0,0,0,1.177-9.57c0-4.907-.837-9.564-2.24-12.453-3.051-10.5-9.88-18.2-18.266-20.585a21.676,21.676,0,0,0-5.945-.831c-7.157,0-14.41,3.488-20.424,9.824.737.828,1.464,1.7,2.157,2.591a56.66,56.66,0,0,1,8.537,15.631c.563,1.553,1.065,3.141,1.5,4.741A6.356,6.356,0,0,1,99.1,77.693a6.041,6.041,0,1,1-12.06,0,6.553,6.553,0,0,1,2.326-5.059c-.361-1.3-.774-2.6-1.234-3.88a49.643,49.643,0,0,0-9.316-15.941A50.315,50.315,0,0,0,70.975,69.9q-.353,1.407-.631,2.821a6.565,6.565,0,0,1,2.222,4.972,6.041,6.041,0,1,1-12.06,0,6.342,6.342,0,0,1,4.685-6.251c.2-1.006.427-2.008.676-3A57.553,57.553,0,0,1,72.82,51.952c.665-1.06,1.355-2.083,2.053-3.041-5.821-5.025-12.559-7.794-18.973-7.794A21.869,21.869,0,0,0,47.583,42.741Z" transform="translate(0)" fill="#fff"/>
</svg>
