<svg id="user-account-box" xmlns="http://www.w3.org/2000/svg" width="50" height="50" viewBox="0 0 50 50">
  <g id="account-box">
    <path id="Path_1" data-name="Path 1" d="M0,5.556V44.444A5.572,5.572,0,0,0,5.556,50H44.444A5.572,5.572,0,0,0,50,44.444V5.556A5.572,5.572,0,0,0,44.444,0H5.556A5.572,5.572,0,0,0,0,5.556ZM33.333,16.667A8.185,8.185,0,0,1,25,25a8.185,8.185,0,0,1-8.333-8.333A8.185,8.185,0,0,1,25,8.333,8.185,8.185,0,0,1,33.333,16.667Zm-25,22.222c0-5.556,11.111-8.611,16.667-8.611s16.667,3.056,16.667,8.611v2.778H8.333Z" fill="#fff"/>
  </g>
</svg>
