<?xml version="1.0" encoding="utf-8"?>
<!-- Generator: Adobe Illustrator 19.0.0, SVG Export Plug-In . SVG Version: 6.00 Build 0)  -->
<svg xmlns="http://www.w3.org/2000/svg" xmlns:xlink="http://www.w3.org/1999/xlink" version="1.1" id="Layer_1" x="0px" y="0px" viewBox="0 2 98 98" style="enable-background:new 0 2 98 98;" xml:space="preserve" width="512" height="512">
<style type="text/css">
	.st0{fill:url(#SVGID_1_);}
</style>
<linearGradient id="SVGID_1_" gradientUnits="userSpaceOnUse" x1="49" y1="9.9001" x2="49" y2="92.0999">
	<stop offset="0" style="stop-color:#00EFD1"/>
	<stop offset="1" style="stop-color:#00ACEA"/>
</linearGradient>
<path class="st0" d="M84.4,48.6c0-6.1-5-11.1-11.1-11.1c-6.1,0-11.1,5-11.1,11.1c0,5.1,3.4,9.4,8.1,10.7v11.8c0,8.3-6.7,15-15,15  c-8.3,0-15-6.7-15-15V54.2c12-1.3,21.3-11.5,21.3-23.8V16.1c0-1.7-1.3-3-3-3h-6.5v-0.2c0-1.7-1.3-3-3-3s-3,1.3-3,3v6.4  c0,1.7,1.3,3,3,3s3-1.3,3-3v-0.2h3.5v11.3c0,9.9-8.1,18-18,18c-9.9,0-18-8.1-18-18V19.1h3.3v0.2c0,1.7,1.3,3,3,3s3-1.3,3-3v-6.4  c0-1.7-1.3-3-3-3s-3,1.3-3,3v0.2h-6.3c-1.7,0-3,1.3-3,3v14.3c0,12.1,9,22.2,20.7,23.8v16.9c0,11.6,9.4,21,21,21c11.6,0,21-9.4,21-21  V59.3C81,58,84.4,53.7,84.4,48.6z M73.3,53.7c-2.8,0-5.1-2.3-5.1-5.1s2.3-5.1,5.1-5.1c2.8,0,5.1,2.3,5.1,5.1S76.1,53.7,73.3,53.7z"/>
</svg>
